<?xml version="1.0" encoding="utf-8"?>
<!-- Generator: Adobe Illustrator 19.0.0, SVG Export Plug-In . SVG Version: 6.00 Build 0)  -->
<svg version="1.1" id="Layer_1" xmlns="http://www.w3.org/2000/svg" xmlns:xlink="http://www.w3.org/1999/xlink" x="0px" y="0px"
	 viewBox="0 0 188 45.1" style="enable-background:new 0 0 188 45.1;" xml:space="preserve">
<style type="text/css">
	.st0{fill:#FFFFFF;}
</style>
<symbol  id="Logo-White_3_" viewBox="-135.3 -32.4 270.5 64.9">
	<path id="XMLID_20_" class="st0" d="M-89.8,5c-0.6,14,14.2,14.6,17.4,4.7c5.2-42-41.9-51.9-54.8-32.7C-119.5-32.9-78.8-26.9-89.8,5
		L-89.8,5z"/>
	<path id="XMLID_19_" class="st0" d="M-97.5,14.3c12.9-2,14.8,13.3,5.2,17.3c-40.1,8-53-39.9-34.9-54.6
		C-136.2-14.3-127.8,27-97.5,14.3L-97.5,14.3z"/>
	<g id="XMLID_12_">
		<path id="XMLID_18_" class="st0" d="M-27.5-6.2c0-2.6-0.9-4.7-2.8-6.2c-1.8-1.5-4-2.2-6.6-2.2h-20.8v4.8h20.8
			c1.3,0,2.4,0.3,3.4,0.9c1.1,0.7,1.6,1.7,1.6,2.9s-0.6,2.2-1.7,2.8c-0.9,0.6-2.1,0.8-3.4,0.8h-12.7c-2.4,0-4.4,0.7-6,2
			c-1.7,1.4-2.6,3.3-2.6,5.6s0.9,4.1,2.6,5.6c1.6,1.3,3.6,2,6,2h20.6V8h-20.6c-0.9,0-1.7-0.3-2.3-0.8c-0.6-0.5-1-1.2-1-2
			c0-0.9,0.3-1.6,1-2c0.6-0.5,1.4-0.7,2.3-0.7h12.9c2.6,0,4.8-0.8,6.6-2.3C-28.4-1.6-27.5-3.7-27.5-6.2z"/>
		<path id="XMLID_17_" class="st0" d="M-18.5-14.7h-4.7v27.3h4.8v-27.3H-18.5z M4.5-14.7h-4.8v11.4h-16v4.8h16v11.2h4.8V-14.7z"/>
		<path id="XMLID_16_" class="st0" d="M44.4-14.7h-6.1l-4.6,7.6h-13l2.9,4.7h7.2L26,5.5L13.7-14.7H7.6L22.4,10
			c0.4,0.6,0.9,1.2,1.6,1.8c0.8,0.6,1.5,0.9,2.2,0.9s1.4-0.3,2.2-0.9c0.6-0.5,1.2-1.1,1.6-1.8L44.4-14.7z"/>
		<path id="XMLID_15_" class="st0" d="M73.9-12.3c0-1.8-0.6-2.6-1.8-2.6c-0.9,0-1.9,0.5-3,1.6L51.6,4.3v-19h-4.7v25
			c0,0.6,0.2,1.2,0.5,1.7s0.8,0.7,1.5,0.7c0.9,0,1.8-0.5,2.7-1.4L69.1-6.3v19h4.8V-12.3z"/>
		<path id="XMLID_14_" class="st0" d="M105,7.9H94.2v-22.6h-4.7V7.9H78.7v4.8H105V7.9z"/>
		<path id="XMLID_13_" class="st0" d="M135.3-14.7h-6.1l-4.6,7.6h-13l2.9,4.7h7.2l-4.8,7.9l-12.3-20.2h-6.1L113.3,10
			c0.4,0.6,0.9,1.2,1.6,1.8c0.8,0.6,1.5,0.9,2.2,0.9s1.4-0.3,2.2-0.9c0.6-0.5,1.2-1.1,1.6-1.8L135.3-14.7z"/>
	</g>
	<g id="XMLID_3_">
		<path id="XMLID_11_" class="st0" d="M-57-26.5h4.2v4.4h0.9v-9.6h-0.9v4.3H-57v-4.3h-0.9v9.6h0.9V-26.5z"/>
		<path id="XMLID_10_" class="st0" d="M-21.1-26.9c0-1.3-0.5-2.4-1.5-3.3c-1-0.9-2.2-1.4-3.6-1.4s-2.6,0.5-3.6,1.4s-1.5,2-1.5,3.3
			s0.5,2.4,1.5,3.3c1,0.9,2.2,1.4,3.6,1.4s2.6-0.5,3.6-1.4S-21.1-25.6-21.1-26.9z M-22-26.9c0,1.1-0.4,2-1.2,2.7
			c-0.8,0.7-1.8,1.1-3,1.1s-2.2-0.4-2.9-1.1c-0.8-0.7-1.1-1.6-1.1-2.8c0-1.1,0.4-2,1.1-2.8c0.8-0.7,1.7-1.1,2.9-1.1
			c1.2,0,2.2,0.4,3,1.1C-22.4-29-22-28-22-26.9z"/>
		<path id="XMLID_9_" class="st0" d="M-0.4-31.6v9.6h0.9v-8.7h3v-0.9H-0.4z"/>
		<path id="XMLID_8_" class="st0" d="M24.3-31.6v9.6h0.9v-9.6H24.3z M25.1-30.7c1.1,0,2.1,0.4,2.9,1.1c0.8,0.8,1.2,1.7,1.2,2.8
			s-0.4,2-1.2,2.8s-1.8,1.1-2.9,1.1v0.9c1.4,0,2.5-0.5,3.5-1.4c1-1,1.5-2.1,1.5-3.4c0-1.3-0.5-2.4-1.5-3.4c-1-0.9-2.2-1.4-3.6-1.4
			v0.9H25.1z"/>
		<path id="XMLID_7_" class="st0" d="M50.9-22h0.9v-9.6h-0.9V-22z"/>
		<path id="XMLID_6_" class="st0" d="M73.5-23.8v-7.9h-0.9v9.6h0.9l4.2-8v8h0.9v-9.6h-0.9L73.5-23.8z"/>
		<path id="XMLID_5_" class="st0" d="M104.3-31.5c-1.4,0-2.5,0.5-3.5,1.4s-1.5,2-1.5,3.3s0.5,2.4,1.5,3.3c1,0.9,2.1,1.4,3.5,1.4V-23
			c-1.1,0-2.1-0.4-2.9-1.1c-0.8-0.7-1.2-1.6-1.2-2.7c0-1.1,0.4-2,1.2-2.7s1.7-1.1,2.9-1.1V-31.5z M106.8-23.8
			c-0.7,0.5-1.5,0.8-2.5,0.8v0.9c1.3,0,2.5-0.4,3.4-1.3L106.8-23.8z M108.2-27.7c-0.2-0.9-0.7-1.6-1.4-2.1s-1.6-0.8-2.5-0.8v-0.9
			c1.2,0,2.2,0.4,3.2,1.1c0.9,0.7,1.5,1.6,1.7,2.7H108.2z M106.4-27.7v0.9h2.8v-0.9H106.4z"/>
		<path id="XMLID_4_" class="st0" d="M131.4-31.7c-0.5,0-0.9,0-1.1,0.1c-0.4,0.1-0.7,0.2-1,0.4c-0.2,0.2-0.5,0.5-0.8,0.9l0.8,0.4
			c0.1-0.2,0.4-0.4,0.8-0.6c0.3-0.2,0.8-0.3,1.4-0.3L131.4-31.7L131.4-31.7z M134.7-28.8c0-0.8-0.3-1.5-0.9-2
			c-0.6-0.6-1.3-0.9-2.1-0.9c-0.1,0-0.2,0-0.3,0v0.9c0.1,0,0.2,0,0.3,0c0.5,0,1,0.2,1.4,0.6c0.4,0.4,0.6,0.9,0.6,1.4
			c0,0.7-0.8,1.3-2.3,1.9c-1.8,0.8-2.7,1.7-2.7,2.6c0,0.7,0.3,1.2,0.8,1.7s1.1,0.7,1.8,0.6v-0.9c-0.4,0-0.8-0.1-1.2-0.4
			c-0.3-0.3-0.5-0.6-0.6-1c-0.1-0.6,0.5-1.1,1.8-1.7c0.6-0.2,1.2-0.5,1.6-0.8C134.1-27.4,134.7-28.1,134.7-28.8z M133-24
			c-0.1,0.1-0.1,0.2-0.2,0.3c-0.1,0.2-0.3,0.4-0.4,0.5c-0.3,0.2-0.6,0.3-1,0.3v0.9c0.6,0,1.1-0.1,1.6-0.5c0.3-0.2,0.5-0.6,0.8-1.1
			L133-24z"/>
	</g>
</symbol>
<use xlink:href="#Logo-White_3_"  width="270.5" height="64.9" id="XMLID_1746_" x="-135.3" y="-32.4" transform="matrix(0.6933 0 0 -0.6933 93.7823 22.4959)" style="overflow:visible;"/>
</svg>
