<?xml version="1.0" encoding="UTF-8"?>
<svg version="1.1" xmlns="http://www.w3.org/2000/svg" width="283" height="44">
<path d="M0 0 C0.85998596 0.0028299 1.71997192 0.00565979 2.60601807 0.00857544 C5.34686321 0.019751 8.08737898 0.04485071 10.828125 0.0703125 C12.68879736 0.0803457 14.54947485 0.08947095 16.41015625 0.09765625 C20.96627232 0.11968174 25.52214286 0.15419353 30.078125 0.1953125 C30.078125 3.4953125 30.078125 6.7953125 30.078125 10.1953125 C18.528125 10.1953125 6.978125 10.1953125 -4.921875 10.1953125 C-4.921875 12.1753125 -4.921875 14.1553125 -4.921875 16.1953125 C-3.73428589 16.17174683 -3.73428589 16.17174683 -2.52270508 16.14770508 C1.07333195 16.08524551 4.6692547 16.04628615 8.265625 16.0078125 C9.51150391 15.98267578 10.75738281 15.95753906 12.04101562 15.93164062 C13.24306641 15.92197266 14.44511719 15.91230469 15.68359375 15.90234375 C16.78856201 15.8866333 17.89353027 15.87092285 19.03198242 15.85473633 C23.42676956 16.34609868 25.99647724 18.11366474 29.078125 21.1953125 C30.88293145 26.57502404 31.0452942 32.92246489 28.828125 38.1328125 C24.72793801 42.96517574 24.72793801 42.96517574 21.21350098 43.45541382 C18.85535691 43.54288394 16.51562644 43.5321674 14.15625 43.48828125 C13.29626404 43.48403641 12.43627808 43.47979156 11.55023193 43.47541809 C8.8092083 43.45865366 6.06892561 43.42100595 3.328125 43.3828125 C1.46745855 43.36776275 -0.39321945 43.35407485 -2.25390625 43.34179688 C-6.8101804 43.30875749 -11.36590216 43.25699083 -15.921875 43.1953125 C-15.921875 39.8953125 -15.921875 36.5953125 -15.921875 33.1953125 C-4.701875 32.8653125 6.518125 32.5353125 18.078125 32.1953125 C18.408125 30.5453125 18.738125 28.8953125 19.078125 27.1953125 C18.28639893 27.21102295 17.49467285 27.2267334 16.67895508 27.24291992 C13.08291805 27.30537949 9.4869953 27.34433885 5.890625 27.3828125 C4.02180664 27.42051758 4.02180664 27.42051758 2.11523438 27.45898438 C0.91318359 27.46865234 -0.28886719 27.47832031 -1.52734375 27.48828125 C-3.18479614 27.51184692 -3.18479614 27.51184692 -4.87573242 27.53588867 C-9.12840708 27.06041531 -11.71779311 25.39676539 -14.7109375 22.41015625 C-16.34367337 19.42382967 -16.32037898 17.146303 -16.296875 13.7578125 C-16.30460937 12.64535156 -16.31234375 11.53289063 -16.3203125 10.38671875 C-15.8780843 6.8445576 -15.1074949 4.99903758 -12.921875 2.1953125 C-9.04242394 -0.62294069 -4.58001503 -0.05679445 0 0 Z " fill="#8CC63F" transform="translate(127.921875,0.8046875)"/>
<path d="M0 0 C0.85998596 0.0028299 1.71997192 0.00565979 2.60601807 0.00857544 C5.34686321 0.019751 8.08737898 0.04485071 10.828125 0.0703125 C12.68879736 0.0803457 14.54947485 0.08947095 16.41015625 0.09765625 C20.96627232 0.11968174 25.52214286 0.15419353 30.078125 0.1953125 C30.078125 3.4953125 30.078125 6.7953125 30.078125 10.1953125 C18.858125 10.5253125 7.638125 10.8553125 -3.921875 11.1953125 C-4.251875 12.8453125 -4.581875 14.4953125 -4.921875 16.1953125 C-3.73428589 16.17174683 -3.73428589 16.17174683 -2.52270508 16.14770508 C1.07333195 16.08524551 4.6692547 16.04628615 8.265625 16.0078125 C9.51150391 15.98267578 10.75738281 15.95753906 12.04101562 15.93164062 C13.24306641 15.92197266 14.44511719 15.91230469 15.68359375 15.90234375 C16.78856201 15.8866333 17.89353027 15.87092285 19.03198242 15.85473633 C23.37575619 16.34039509 25.98455002 17.98860907 28.890625 21.1953125 C31.06328712 26.68414313 31.10145958 32.73930952 28.828125 38.1953125 C24.64448862 42.97661122 24.64448862 42.97661122 21.21350098 43.45565796 C18.85537677 43.54286198 16.51559722 43.53216686 14.15625 43.48828125 C13.29626404 43.48403641 12.43627808 43.47979156 11.55023193 43.47541809 C8.8092083 43.45865366 6.06892561 43.42100595 3.328125 43.3828125 C1.46745855 43.36776275 -0.39321945 43.35407485 -2.25390625 43.34179688 C-6.8101804 43.30875749 -11.36590216 43.25699083 -15.921875 43.1953125 C-15.921875 39.8953125 -15.921875 36.5953125 -15.921875 33.1953125 C-4.701875 32.8653125 6.518125 32.5353125 18.078125 32.1953125 C18.408125 30.5453125 18.738125 28.8953125 19.078125 27.1953125 C18.31669189 27.20578613 17.55525879 27.21625977 16.77075195 27.22705078 C13.3107434 27.26870269 9.85078769 27.2946681 6.390625 27.3203125 C4.59334961 27.34544922 4.59334961 27.34544922 2.75976562 27.37109375 C1.60283203 27.37753906 0.44589844 27.38398438 -0.74609375 27.390625 C-2.34070435 27.40633545 -2.34070435 27.40633545 -3.9675293 27.42236328 C-7.80449541 27.12748034 -10.68819403 26.2086933 -13.671875 23.7578125 C-16.22603052 20.56511809 -16.11319028 17.24240764 -16.171875 13.3203125 C-16.21054687 11.77730469 -16.21054687 11.77730469 -16.25 10.203125 C-15.87131232 6.73182125 -15.05025572 4.94686776 -12.921875 2.1953125 C-9.04498411 -0.62446645 -4.57849084 -0.05677555 0 0 Z " fill="#8CC63F" transform="translate(75.921875,0.8046875)"/>
<path d="M0 0 C1.20079193 0.00022659 1.20079193 0.00022659 2.42584229 0.00045776 C3.28014832 0.01078033 4.13445435 0.02110291 5.01464844 0.03173828 C5.89683044 0.03456818 6.77901245 0.03739807 7.68792725 0.04031372 C10.50009842 0.05149117 13.31194884 0.07659127 16.12402344 0.10205078 C18.032873 0.11208373 19.94172756 0.12120903 21.85058594 0.12939453 C26.52518833 0.15142254 31.19955153 0.18593567 35.87402344 0.22705078 C35.87402344 3.52705078 35.87402344 6.82705078 35.87402344 10.22705078 C18.54902344 10.72205078 18.54902344 10.72205078 0.87402344 11.22705078 C0.87402344 18.15705078 0.87402344 25.08705078 0.87402344 32.22705078 C8.79402344 32.55705078 16.71402344 32.88705078 24.87402344 33.22705078 C24.87402344 31.24705078 24.87402344 29.26705078 24.87402344 27.22705078 C21.57402344 27.22705078 18.27402344 27.22705078 14.87402344 27.22705078 C14.87402344 23.59705078 14.87402344 19.96705078 14.87402344 16.22705078 C21.80402344 16.22705078 28.73402344 16.22705078 35.87402344 16.22705078 C36.02871094 21.26986328 36.02871094 21.26986328 36.18652344 26.41455078 C36.23204346 27.46537842 36.27756348 28.51620605 36.32446289 29.59887695 C36.42714756 36.50789919 36.42714756 36.50789919 33.47949219 40.34033203 C29.39895876 43.29520107 26.54055083 43.40021885 21.63574219 43.43017578 C20.91796097 43.43587585 20.20017975 43.44157593 19.46064758 43.44744873 C17.94000727 43.4569003 16.41934645 43.46343334 14.89868164 43.46728516 C12.58084955 43.47697003 10.26391219 43.50798158 7.94628906 43.53955078 C6.46777869 43.54608315 4.98926199 43.55133271 3.51074219 43.55517578 C2.82098801 43.56752258 2.13123383 43.57986938 1.420578 43.59259033 C-2.93557209 43.57259614 -5.7118502 42.97635977 -9.12597656 40.22705078 C-12.50460394 35.58470583 -11.45968833 29.28600002 -11.44165039 23.80981445 C-11.4384918 21.79925238 -11.46196273 19.79016538 -11.48730469 17.77978516 C-11.48794922 16.50554688 -11.48859375 15.23130859 -11.48925781 13.91845703 C-11.49223877 12.75515869 -11.49521973 11.59186035 -11.49829102 10.39331055 C-11.0821035 6.85394279 -10.31378959 5.02219452 -8.12597656 2.22705078 C-5.32691742 0.52691214 -3.25641428 -0.02061022 0 0 Z " fill="#8CC63F" transform="translate(194.1259765625,0.77294921875)"/>
<path d="M0 0 C2.5 2 2.5 2 3.5 4 C3.58675538 6.69893181 3.61557897 9.37169231 3.59765625 12.0703125 C3.5962413 12.86654022 3.59482635 13.66276794 3.59336853 14.48312378 C3.58776345 17.0304538 3.57521014 19.57769647 3.5625 22.125 C3.55748565 23.85025915 3.55292263 25.57551967 3.54882812 27.30078125 C3.53779237 31.53388791 3.52052436 35.76692914 3.5 40 C-0.46 40 -4.42 40 -8.5 40 C-8.83 29.77 -9.16 19.54 -9.5 9 C-12.65849685 7.42075158 -16.0365128 7.85683486 -19.5 7.875 C-20.23734375 7.87113281 -20.9746875 7.86726562 -21.734375 7.86328125 C-25.74721641 7.78582588 -25.74721641 7.78582588 -29.5 9 C-29.83 19.23 -30.16 29.46 -30.5 40 C-34.46 40 -38.42 40 -42.5 40 C-42.6238722 34.96469037 -42.71446514 29.93027303 -42.7746582 24.89379883 C-42.79975714 23.18172755 -42.83384429 21.46976296 -42.87719727 19.75805664 C-42.93805739 17.29286355 -42.96625432 14.82909015 -42.98828125 12.36328125 C-43.01408768 11.60163162 -43.0398941 10.83998199 -43.06648254 10.05525208 C-43.06860895 5.99916719 -42.69439346 4.23941193 -40.10375977 1.04882812 C-30.08558516 -6.83420247 -10.71708883 -6.75807014 0 0 Z " fill="#8CC63F" transform="translate(279.5,4)"/>
<path d="M0 0 C1.28764343 1.57826233 1.28764343 1.57826233 2.45581055 3.56274414 C2.88235931 4.28559601 3.30890808 5.00844788 3.74838257 5.75320435 C5.66103956 9.1866412 7.46398898 12.66131578 9.20703125 16.18359375 C9.76241829 17.29505516 9.76241829 17.29505516 10.32902527 18.42897034 C11.10138354 19.97668072 11.87181971 21.52535171 12.64038086 23.07495117 C13.82263403 25.45792637 15.01142831 27.8375539 16.20117188 30.21679688 C16.95350569 31.72637283 17.70547251 33.23613176 18.45703125 34.74609375 C18.81320023 35.45954453 19.1693692 36.1729953 19.53633118 36.9080658 C22 41.88388323 22 41.88388323 22 43 C9.46 43 -3.08 43 -16 43 C-14.35 39.7 -12.7 36.4 -11 33 C-6.05 33 -1.1 33 4 33 C3.4225 31.86820313 2.845 30.73640625 2.25 29.5703125 C1.49979009 28.08864793 0.74980153 26.60687127 0 25.125 C-0.3815625 24.37863281 -0.763125 23.63226562 -1.15625 22.86328125 C-1.5171875 22.14785156 -1.878125 21.43242187 -2.25 20.6953125 C-2.58515625 20.03547363 -2.9203125 19.37563477 -3.265625 18.69580078 C-4 17 -4 17 -4 15 C-4.66 15 -5.32 15 -6 15 C-6.21527344 15.76699219 -6.43054688 16.53398437 -6.65234375 17.32421875 C-8.51231029 22.39734487 -11.02910955 27.04739044 -13.5625 31.8125 C-14.06974609 32.77865234 -14.57699219 33.74480469 -15.09960938 34.74023438 C-18.8539109 41.8539109 -18.8539109 41.8539109 -20 43 C-22.01964199 43.07244053 -24.04167124 43.08377188 -26.0625 43.0625 C-27.16722656 43.05347656 -28.27195312 43.04445312 -29.41015625 43.03515625 C-30.69212891 43.01775391 -30.69212891 43.01775391 -32 43 C-30.48916407 37.99900075 -28.39627416 33.50437835 -26.04296875 28.86328125 C-25.6581282 28.10202438 -25.27328766 27.34076752 -24.87678528 26.55644226 C-24.06473672 24.95590794 -23.25021202 23.35662777 -22.43334961 21.75854492 C-21.18931558 19.31606463 -19.96478505 16.86440286 -18.74023438 14.41210938 C-17.94650027 12.85356119 -17.15161702 11.2955976 -16.35546875 9.73828125 C-15.99382126 9.00700516 -15.63217377 8.27572906 -15.25956726 7.52229309 C-11.79424649 0.84598205 -7.83208735 -2.65731535 0 0 Z " fill="#8CC63F" transform="translate(32,1)"/>
<path d="M0 0 C4.29 0 8.58 0 13 0 C13 14.19 13 28.38 13 43 C8.71 43 4.42 43 0 43 C0 28.81 0 14.62 0 0 Z " fill="#8CC63F" transform="translate(164,1)"/>
</svg>
